<mxfile host="app.diagrams.net" modified="2024-03-25T14:21:25.882Z" agent="Mozilla/5.0 (Windows NT 10.0; Win64; x64) AppleWebKit/537.36 (KHTML, like Gecko) Chrome/122.0.0.0 Safari/537.36" etag="OidSaDWt2ZoyHAg-7ijp" version="24.1.0" type="device">
  <diagram name="Página-1" id="CO9XQqCM3-qVdGJLoyxs">
    <mxGraphModel dx="2927" dy="1060" grid="1" gridSize="10" guides="1" tooltips="1" connect="1" arrows="1" fold="1" page="1" pageScale="1" pageWidth="827" pageHeight="1169" math="0" shadow="0">
      <root>
        <mxCell id="0" />
        <mxCell id="1" parent="0" />
        <mxCell id="69vIitxi2W3JChhDYb9d-1" value="For (i = 0; i &amp;lt; num_numeros; i++)" style="html=1;overflow=block;blockSpacing=1;whiteSpace=wrap;rhombus;fontSize=16.5;fontColor=#3a414a;align=center;spacing=3.8;strokeColor=#3a414a;rounded=1;absoluteArcSize=1;arcSize=9;fillColor=#ffffff;strokeWidth=0.8;lucidId=~STmktq-.ZrW;" vertex="1" parent="1">
          <mxGeometry x="-682.5" y="780" width="257" height="257" as="geometry" />
        </mxCell>
        <mxCell id="69vIitxi2W3JChhDYb9d-3" value="media = soma / num_numeros" style="html=1;overflow=block;blockSpacing=1;whiteSpace=wrap;fontSize=16.5;fontColor=#3a414a;align=center;spacing=9;strokeColor=#3a414a;rounded=1;absoluteArcSize=1;arcSize=9;fillColor=#ffffff;strokeWidth=0.8;lucidId=aTTmV9Z9RBZ1;" vertex="1" parent="1">
          <mxGeometry x="-501" y="1169" width="265" height="47" as="geometry" />
        </mxCell>
        <mxCell id="69vIitxi2W3JChhDYb9d-8" value="soma += numero" style="html=1;overflow=block;blockSpacing=1;whiteSpace=wrap;fontSize=16.5;fontColor=#3a414a;align=center;spacing=9;strokeColor=#3a414a;rounded=1;absoluteArcSize=1;arcSize=9;fillColor=#ffffff;strokeWidth=0.8;lucidId=aTTmMsLCJWmU;" vertex="1" parent="1">
          <mxGeometry x="-730" y="1450" width="158" height="47" as="geometry" />
        </mxCell>
        <mxCell id="69vIitxi2W3JChhDYb9d-10" value="soma = 0" style="html=1;overflow=block;blockSpacing=1;whiteSpace=wrap;fontSize=16.5;fontColor=#3a414a;align=center;spacing=9;strokeColor=#3a414a;rounded=1;absoluteArcSize=1;arcSize=9;fillColor=#ffffff;strokeWidth=0.8;lucidId=aTTmSi5_~KS~;" vertex="1" parent="1">
          <mxGeometry x="-601.5" y="680" width="96" height="47" as="geometry" />
        </mxCell>
        <mxCell id="69vIitxi2W3JChhDYb9d-40" value="" style="edgeStyle=orthogonalEdgeStyle;rounded=0;orthogonalLoop=1;jettySize=auto;html=1;" edge="1" parent="1" source="69vIitxi2W3JChhDYb9d-11" target="69vIitxi2W3JChhDYb9d-37">
          <mxGeometry relative="1" as="geometry" />
        </mxCell>
        <mxCell id="69vIitxi2W3JChhDYb9d-48" value="" style="edgeStyle=orthogonalEdgeStyle;rounded=0;orthogonalLoop=1;jettySize=auto;html=1;" edge="1" parent="1" source="69vIitxi2W3JChhDYb9d-11" target="69vIitxi2W3JChhDYb9d-47">
          <mxGeometry relative="1" as="geometry" />
        </mxCell>
        <mxCell id="69vIitxi2W3JChhDYb9d-11" value="Início" style="html=1;overflow=block;blockSpacing=1;whiteSpace=wrap;fontSize=16.5;fontColor=#3a414a;align=center;spacing=9;strokeColor=#3a414a;rounded=1;absoluteArcSize=1;arcSize=9;fillColor=#ffffff;strokeWidth=0.8;lucidId=aTTm31xdy-kA;" vertex="1" parent="1">
          <mxGeometry x="-582.25" y="170" width="56.5" height="50" as="geometry" />
        </mxCell>
        <mxCell id="69vIitxi2W3JChhDYb9d-12" value="Fim" style="html=1;overflow=block;blockSpacing=1;whiteSpace=wrap;fontSize=16.5;fontColor=#3a414a;align=center;spacing=9;strokeColor=#3a414a;rounded=1;absoluteArcSize=1;arcSize=9;fillColor=#ffffff;strokeWidth=0.8;lucidId=aTTmLILKkHqs;" vertex="1" parent="1">
          <mxGeometry x="-396" y="1509" width="55" height="47" as="geometry" />
        </mxCell>
        <mxCell id="69vIitxi2W3JChhDYb9d-17" value="" style="html=1;jettySize=18;whiteSpace=wrap;fontSize=13;strokeColor=#0b0b0b;strokeWidth=1.5;rounded=1;arcSize=12;edgeStyle=orthogonalEdgeStyle;startArrow=none;endArrow=block;endFill=1;exitX=0.5;exitY=1;exitPerimeter=0;lucidId=aTTmg1u5X.V2;exitDx=0;exitDy=0;entryX=0.5;entryY=0;entryDx=0;entryDy=0;" edge="1" parent="1" source="69vIitxi2W3JChhDYb9d-37" target="69vIitxi2W3JChhDYb9d-38">
          <mxGeometry width="100" height="100" relative="1" as="geometry">
            <Array as="points">
              <mxPoint x="-554" y="560" />
            </Array>
            <mxPoint x="-553.5" y="72.3760000000002" as="sourcePoint" />
            <mxPoint x="-170" y="470" as="targetPoint" />
          </mxGeometry>
        </mxCell>
        <mxCell id="69vIitxi2W3JChhDYb9d-18" value="" style="text;html=1;resizable=0;labelBackgroundColor=default;align=center;verticalAlign=middle;fontSize=13;" vertex="1" parent="69vIitxi2W3JChhDYb9d-17">
          <mxGeometry relative="1" as="geometry" />
        </mxCell>
        <mxCell id="69vIitxi2W3JChhDYb9d-19" value="" style="html=1;jettySize=18;whiteSpace=wrap;fontSize=13;strokeColor=#0b0b0b;strokeWidth=1.5;rounded=1;arcSize=12;edgeStyle=orthogonalEdgeStyle;startArrow=none;endArrow=block;endFill=1;exitX=0.5;exitY=1;entryX=0.5;entryY=-0.008;entryPerimeter=0;lucidId=aTTmr5mINawX;exitDx=0;exitDy=0;" edge="1" parent="1" source="69vIitxi2W3JChhDYb9d-38" target="69vIitxi2W3JChhDYb9d-10">
          <mxGeometry width="100" height="100" relative="1" as="geometry">
            <Array as="points" />
            <mxPoint x="-554" y="420.58399999999983" as="sourcePoint" />
          </mxGeometry>
        </mxCell>
        <mxCell id="69vIitxi2W3JChhDYb9d-20" value="" style="text;html=1;resizable=0;labelBackgroundColor=default;align=center;verticalAlign=middle;fontSize=13;" vertex="1" parent="69vIitxi2W3JChhDYb9d-19">
          <mxGeometry relative="1" as="geometry" />
        </mxCell>
        <mxCell id="69vIitxi2W3JChhDYb9d-21" value="" style="html=1;jettySize=18;whiteSpace=wrap;fontSize=13;strokeColor=#0b0b0b;strokeWidth=1.5;rounded=1;arcSize=12;edgeStyle=orthogonalEdgeStyle;startArrow=none;endArrow=block;endFill=1;exitX=0.5;exitY=1.008;exitPerimeter=0;entryX=0.5;entryY=0.006;entryPerimeter=0;lucidId=aTTmvQp92aQG;" edge="1" parent="1" source="69vIitxi2W3JChhDYb9d-10" target="69vIitxi2W3JChhDYb9d-1">
          <mxGeometry width="100" height="100" relative="1" as="geometry">
            <Array as="points" />
          </mxGeometry>
        </mxCell>
        <mxCell id="69vIitxi2W3JChhDYb9d-22" value="" style="text;html=1;resizable=0;labelBackgroundColor=default;align=center;verticalAlign=middle;fontSize=13;" vertex="1" parent="69vIitxi2W3JChhDYb9d-21">
          <mxGeometry relative="1" as="geometry" />
        </mxCell>
        <mxCell id="69vIitxi2W3JChhDYb9d-23" value="" style="html=1;jettySize=18;whiteSpace=wrap;fontSize=13;strokeColor=#0b0b0b;strokeWidth=1.5;rounded=1;arcSize=12;edgeStyle=orthogonalEdgeStyle;startArrow=none;endArrow=block;endFill=1;exitX=0.274;exitY=0.776;exitPerimeter=0;lucidId=aTTm4WStUh4j;entryX=0.5;entryY=0;entryDx=0;entryDy=0;" edge="1" parent="1" source="69vIitxi2W3JChhDYb9d-1" target="69vIitxi2W3JChhDYb9d-44">
          <mxGeometry width="100" height="100" relative="1" as="geometry">
            <Array as="points">
              <mxPoint x="-612" y="990" />
              <mxPoint x="-720" y="990" />
            </Array>
            <mxPoint x="-720" y="1250" as="targetPoint" />
          </mxGeometry>
        </mxCell>
        <mxCell id="69vIitxi2W3JChhDYb9d-24" value="" style="text;html=1;resizable=0;labelBackgroundColor=default;align=center;verticalAlign=middle;fontSize=13;" vertex="1" parent="69vIitxi2W3JChhDYb9d-23">
          <mxGeometry relative="1" as="geometry" />
        </mxCell>
        <mxCell id="69vIitxi2W3JChhDYb9d-42" value="&lt;span data-lucid-content=&quot;{&amp;quot;t&amp;quot;:&amp;quot;Para cada i&amp;quot;,&amp;quot;m&amp;quot;:[]}&quot; data-lucid-type=&quot;application/vnd.lucid.text&quot;&gt;&lt;font style=&quot;font-size: 16px;&quot;&gt;SIM&lt;/font&gt;&lt;/span&gt;" style="edgeLabel;html=1;align=center;verticalAlign=middle;resizable=0;points=[];" vertex="1" connectable="0" parent="69vIitxi2W3JChhDYb9d-23">
          <mxGeometry x="-0.0114" y="-4" relative="1" as="geometry">
            <mxPoint x="4" y="24" as="offset" />
          </mxGeometry>
        </mxCell>
        <mxCell id="69vIitxi2W3JChhDYb9d-27" value="" style="html=1;jettySize=18;whiteSpace=wrap;fontSize=13;strokeColor=#0b0b0b;strokeWidth=1.5;rounded=1;arcSize=12;edgeStyle=orthogonalEdgeStyle;startArrow=none;endArrow=block;endFill=1;exitX=0.5;exitY=1;entryX=0.29;entryY=-0.008;entryPerimeter=0;lucidId=aTTmPYVaQRWA;exitDx=0;exitDy=0;" edge="1" parent="1" source="69vIitxi2W3JChhDYb9d-44" target="69vIitxi2W3JChhDYb9d-8">
          <mxGeometry width="100" height="100" relative="1" as="geometry">
            <Array as="points" />
            <mxPoint x="-720" y="1396.576" as="sourcePoint" />
          </mxGeometry>
        </mxCell>
        <mxCell id="69vIitxi2W3JChhDYb9d-28" value="" style="text;html=1;resizable=0;labelBackgroundColor=default;align=center;verticalAlign=middle;fontSize=13;" vertex="1" parent="69vIitxi2W3JChhDYb9d-27">
          <mxGeometry relative="1" as="geometry" />
        </mxCell>
        <mxCell id="69vIitxi2W3JChhDYb9d-29" value="" style="html=1;jettySize=18;whiteSpace=wrap;fontSize=13;strokeColor=#0b0b0b;strokeWidth=1.5;rounded=1;arcSize=12;edgeStyle=orthogonalEdgeStyle;startArrow=none;endArrow=block;endFill=1;exitX=1;exitY=0.5;entryX=0.5;entryY=0.994;entryPerimeter=0;lucidId=aTTmyASt92nn;exitDx=0;exitDy=0;" edge="1" parent="1" source="69vIitxi2W3JChhDYb9d-8" target="69vIitxi2W3JChhDYb9d-1">
          <mxGeometry width="100" height="100" relative="1" as="geometry">
            <Array as="points">
              <mxPoint x="-554" y="1474" />
            </Array>
          </mxGeometry>
        </mxCell>
        <mxCell id="69vIitxi2W3JChhDYb9d-30" value="" style="text;html=1;resizable=0;labelBackgroundColor=default;align=center;verticalAlign=middle;fontSize=13;" vertex="1" parent="69vIitxi2W3JChhDYb9d-29">
          <mxGeometry relative="1" as="geometry" />
        </mxCell>
        <mxCell id="69vIitxi2W3JChhDYb9d-31" value="" style="html=1;jettySize=18;whiteSpace=wrap;fontSize=13;strokeColor=#0b0b0b;strokeWidth=1.5;rounded=1;arcSize=12;edgeStyle=orthogonalEdgeStyle;startArrow=none;endArrow=block;endFill=1;exitX=0.736;exitY=0.766;exitPerimeter=0;entryX=0.5;entryY=-0.008;entryPerimeter=0;lucidId=aTTmi.9Zo7aa;" edge="1" parent="1" source="69vIitxi2W3JChhDYb9d-1" target="69vIitxi2W3JChhDYb9d-3">
          <mxGeometry width="100" height="100" relative="1" as="geometry">
            <Array as="points" />
          </mxGeometry>
        </mxCell>
        <mxCell id="69vIitxi2W3JChhDYb9d-32" value="" style="text;html=1;resizable=0;labelBackgroundColor=default;align=center;verticalAlign=middle;fontSize=13;" vertex="1" parent="69vIitxi2W3JChhDYb9d-31">
          <mxGeometry relative="1" as="geometry" />
        </mxCell>
        <mxCell id="69vIitxi2W3JChhDYb9d-43" value="&lt;font style=&quot;font-size: 14px;&quot;&gt;NÃO&lt;/font&gt;" style="edgeLabel;html=1;align=center;verticalAlign=middle;resizable=0;points=[];" vertex="1" connectable="0" parent="69vIitxi2W3JChhDYb9d-31">
          <mxGeometry x="-0.7667" y="3" relative="1" as="geometry">
            <mxPoint y="7" as="offset" />
          </mxGeometry>
        </mxCell>
        <mxCell id="69vIitxi2W3JChhDYb9d-33" value="" style="html=1;jettySize=18;whiteSpace=wrap;fontSize=13;strokeColor=#0b0b0b;strokeWidth=1.5;rounded=1;arcSize=12;edgeStyle=orthogonalEdgeStyle;startArrow=none;endArrow=block;endFill=1;exitX=0.5;exitY=1.008;exitPerimeter=0;entryX=0.5;entryY=-0.008;entryPerimeter=0;lucidId=aTTmct0bC9Ja;" edge="1" parent="1" source="69vIitxi2W3JChhDYb9d-3">
          <mxGeometry width="100" height="100" relative="1" as="geometry">
            <Array as="points" />
            <mxPoint x="-368.5" y="1291.6239999999998" as="targetPoint" />
          </mxGeometry>
        </mxCell>
        <mxCell id="69vIitxi2W3JChhDYb9d-34" value="" style="text;html=1;resizable=0;labelBackgroundColor=default;align=center;verticalAlign=middle;fontSize=13;" vertex="1" parent="69vIitxi2W3JChhDYb9d-33">
          <mxGeometry relative="1" as="geometry" />
        </mxCell>
        <mxCell id="69vIitxi2W3JChhDYb9d-35" value="" style="html=1;jettySize=18;whiteSpace=wrap;fontSize=13;strokeColor=#0b0b0b;strokeWidth=1.5;rounded=1;arcSize=12;edgeStyle=orthogonalEdgeStyle;startArrow=none;endArrow=block;endFill=1;exitX=0.5;exitY=1.008;exitPerimeter=0;entryX=0.5;entryY=-0.008;entryPerimeter=0;lucidId=aTTmKtM1YdUU;" edge="1" parent="1" target="69vIitxi2W3JChhDYb9d-12">
          <mxGeometry width="100" height="100" relative="1" as="geometry">
            <Array as="points" />
            <mxPoint x="-368.5" y="1339.376" as="sourcePoint" />
          </mxGeometry>
        </mxCell>
        <mxCell id="69vIitxi2W3JChhDYb9d-36" value="" style="text;html=1;resizable=0;labelBackgroundColor=default;align=center;verticalAlign=middle;fontSize=13;" vertex="1" parent="69vIitxi2W3JChhDYb9d-35">
          <mxGeometry relative="1" as="geometry" />
        </mxCell>
        <mxCell id="69vIitxi2W3JChhDYb9d-37" value="&quot;Qual é a quantidade de números que deseja calcular a média?&quot;" style="strokeWidth=0.8;html=1;shape=mxgraph.flowchart.display;whiteSpace=wrap;" vertex="1" parent="1">
          <mxGeometry x="-653.5" y="360" width="200" height="90" as="geometry" />
        </mxCell>
        <mxCell id="69vIitxi2W3JChhDYb9d-38" value="&lt;div&gt;&lt;span style=&quot;color: rgb(58, 65, 74); font-size: 17px;&quot;&gt;&lt;br&gt;&lt;/span&gt;&lt;/div&gt;&lt;span style=&quot;color: rgb(58, 65, 74); font-size: 17px;&quot;&gt;num_numeros&lt;/span&gt;" style="html=1;strokeWidth=0.8;shape=manualInput;whiteSpace=wrap;rounded=1;size=26;arcSize=11;" vertex="1" parent="1">
          <mxGeometry x="-634" y="560" width="160" height="70" as="geometry" />
        </mxCell>
        <mxCell id="69vIitxi2W3JChhDYb9d-44" value="&lt;div&gt;&lt;br&gt;&lt;/div&gt;&lt;div&gt;numero&lt;/div&gt;" style="html=1;strokeWidth=2;shape=manualInput;whiteSpace=wrap;rounded=1;size=26;arcSize=11;" vertex="1" parent="1">
          <mxGeometry x="-770" y="1260" width="100" height="60" as="geometry" />
        </mxCell>
        <mxCell id="69vIitxi2W3JChhDYb9d-46" value="media" style="strokeWidth=2;html=1;shape=mxgraph.flowchart.display;whiteSpace=wrap;" vertex="1" parent="1">
          <mxGeometry x="-420" y="1280" width="100" height="60" as="geometry" />
        </mxCell>
        <mxCell id="69vIitxi2W3JChhDYb9d-47" value="num_numeros, i, numero, media, soma" style="rounded=1;whiteSpace=wrap;html=1;" vertex="1" parent="1">
          <mxGeometry x="-614" y="260" width="120" height="60" as="geometry" />
        </mxCell>
      </root>
    </mxGraphModel>
  </diagram>
</mxfile>
